<svg width="48" height="48" viewBox="0 0 48 48" fill="none" xmlns="http://www.w3.org/2000/svg">
<g clip-path="url(#clip0_46_40)">
<rect width="48" height="48" fill="white"/>
<path d="M8.76923 18.6841C9.22494 17.948 10.0291 17.5 10.8949 17.5H37.6787C38.5759 17.5 39.4042 17.9807 39.8493 18.7597L43.2779 24.7597C44.2303 26.4263 43.0268 28.5 41.1073 28.5H7.18061C5.22183 28.5 4.02393 26.3496 5.05494 24.6841L8.76923 18.6841L7.49383 17.8946L8.76923 18.6841Z" stroke="#152C5B" stroke-width="3"/>
<mask id="path-2-inside-1_46_40" fill="white">
<path d="M39 46C36.7909 46 35 44.2091 35 42L35 28C35 27.4477 35.4477 27 36 27L42 27C42.5523 27 43 27.4477 43 28L43 42C43 44.2091 41.2091 46 39 46Z"/>
</mask>
<path d="M39 46C36.7909 46 35 44.2091 35 42L35 28C35 27.4477 35.4477 27 36 27L42 27C42.5523 27 43 27.4477 43 28L43 42C43 44.2091 41.2091 46 39 46Z" stroke="#152C5B" stroke-width="6" mask="url(#path-2-inside-1_46_40)"/>
<path d="M17 12V14.5V17" stroke="#152C5B" stroke-width="3" stroke-linecap="round"/>
<path d="M31 12V14.5V17" stroke="#152C5B" stroke-width="3" stroke-linecap="round"/>
<path d="M17 10.5C15.6193 10.5 14.5 9.38071 14.5 8L14.5 3.5L19.5 3.5L19.5 8C19.5 9.38071 18.3807 10.5 17 10.5Z" stroke="#FF498B" stroke-width="3"/>
<path d="M31 10.5C29.6193 10.5 28.5 9.38071 28.5 8L28.5 3.5L33.5 3.5L33.5 8C33.5 9.38071 32.3807 10.5 31 10.5Z" stroke="#FF498B" stroke-width="3"/>
<mask id="path-7-inside-2_46_40" fill="white">
<path d="M9 46C6.79086 46 5 44.2091 5 42L5 28C5 27.4477 5.44772 27 6 27L12 27C12.5523 27 13 27.4477 13 28L13 42C13 44.2091 11.2091 46 9 46Z"/>
</mask>
<path d="M9 46C6.79086 46 5 44.2091 5 42L5 28C5 27.4477 5.44772 27 6 27L12 27C12.5523 27 13 27.4477 13 28L13 42C13 44.2091 11.2091 46 9 46Z" stroke="#152C5B" stroke-width="6" mask="url(#path-7-inside-2_46_40)"/>
</g>
<defs>
<clipPath id="clip0_46_40">
<rect width="48" height="48" fill="white"/>
</clipPath>
</defs>
</svg>
