<svg width="48" height="48" viewBox="0 0 48 48" fill="none" xmlns="http://www.w3.org/2000/svg">
<circle cx="24" cy="26" r="6.5" stroke="#564229" stroke-width="3"/>
<path d="M41 18L33 18" stroke="#152C5B" stroke-width="3" stroke-linecap="round"/>
<mask id="path-3-inside-1_19_7" fill="white">
<path fill-rule="evenodd" clip-rule="evenodd" d="M18.2997 7C17.5094 7 16.7931 7.46547 16.4721 8.18772L15.2222 11H8C3.58172 11 0 14.5817 0 19V33C0 37.4183 3.58172 41 8 41H40C44.4183 41 48 37.4183 48 33V19C48 14.5817 44.4183 11 40 11H33.0556L31.9959 8.27511C31.6969 7.50636 30.9567 7 30.1319 7H18.2997Z"/>
</mask>
<path d="M16.4721 8.18772L13.7307 6.96931L13.7307 6.96931L16.4721 8.18772ZM15.2222 11V14H17.1718L17.9637 12.2184L15.2222 11ZM33.0556 11L30.2595 12.0873L31.0034 14H33.0556V11ZM31.9959 8.27511L29.1999 9.36244L29.1999 9.36245L31.9959 8.27511ZM19.2136 9.40614C19.0531 9.76726 18.6949 10 18.2997 10V4C16.3238 4 14.5332 5.16367 13.7307 6.96931L19.2136 9.40614ZM17.9637 12.2184L19.2136 9.40614L13.7307 6.96931L12.4808 9.78158L17.9637 12.2184ZM8 14H15.2222V8H8V14ZM3 19C3 16.2386 5.23858 14 8 14V8C1.92487 8 -3 12.9249 -3 19H3ZM3 33V19H-3V33H3ZM8 38C5.23858 38 3 35.7614 3 33H-3C-3 39.0751 1.92487 44 8 44V38ZM40 38H8V44H40V38ZM45 33C45 35.7614 42.7614 38 40 38V44C46.0751 44 51 39.0751 51 33H45ZM45 19V33H51V19H45ZM40 14C42.7614 14 45 16.2386 45 19H51C51 12.9249 46.0751 8 40 8V14ZM33.0556 14H40V8H33.0556V14ZM29.1999 9.36245L30.2595 12.0873L35.8516 9.91266L34.7919 7.18777L29.1999 9.36245ZM30.1319 10C29.7195 10 29.3493 9.74682 29.1999 9.36244L34.7919 7.18777C34.0445 5.26591 32.1939 4 30.1319 4V10ZM18.2997 10H30.1319V4H18.2997V10Z" fill="#152C5B" mask="url(#path-3-inside-1_19_7)"/>
</svg>
