<svg width="49" height="49" viewBox="0 0 49 49" fill="none" xmlns="http://www.w3.org/2000/svg">
<g clip-path="url(#clip0_42_28)">
<rect width="49" height="49" fill="white"/>
<path d="M13.5 18C13.5 16.6193 14.6193 15.5 16 15.5H20C21.3807 15.5 22.5 16.6193 22.5 18V24.5H13.5V18Z" stroke="#FF498B" stroke-width="3"/>
<path d="M26.5 18C26.5 16.6193 27.6193 15.5 29 15.5H33C34.3807 15.5 35.5 16.6193 35.5 18V24.5H26.5V18Z" stroke="#FF498B" stroke-width="3"/>
<path d="M8.5 11C8.5 6.30558 12.3056 2.5 17 2.5H32C36.6944 2.5 40.5 6.30558 40.5 11V24.5H8.5V11Z" stroke="#152C5B" stroke-width="3"/>
<mask id="path-4-inside-1_42_28" fill="white">
<path d="M0 27C0 24.7909 1.79086 23 4 23H45C47.2091 23 49 24.7909 49 27V37C49 38.1046 48.1046 39 47 39H2C0.89543 39 0 38.1046 0 37V27Z"/>
</mask>
<path d="M0 27C0 24.7909 1.79086 23 4 23H45C47.2091 23 49 24.7909 49 27V37C49 38.1046 48.1046 39 47 39H2C0.89543 39 0 38.1046 0 37V27Z" stroke="#152C5B" stroke-width="6" mask="url(#path-4-inside-1_42_28)"/>
<path d="M42 41.8333L6 41.8333" stroke="#152C5B" stroke-width="3" stroke-linecap="round"/>
<path d="M5 38.7708V42.8542V46.9375" stroke="#152C5B" stroke-width="3" stroke-linecap="round"/>
<path d="M44 38.7708V42.8542V46.9375" stroke="#152C5B" stroke-width="3" stroke-linecap="round"/>
</g>
<defs>
<clipPath id="clip0_42_28">
<rect width="49" height="49" fill="white"/>
</clipPath>
</defs>
</svg>
