<svg width="48" height="48" viewBox="0 0 48 48" fill="none" xmlns="http://www.w3.org/2000/svg">
<path d="M30.5 40.5C30.5 41.6457 29.4516 43.1445 26.6771 44.4451C24.0221 45.6896 20.2488 46.5 16 46.5C11.7512 46.5 7.97793 45.6896 5.32294 44.4451C2.54839 43.1445 1.5 41.6457 1.5 40.5C1.5 39.3543 2.54839 37.8555 5.32294 36.5549C7.97793 35.3104 11.7512 34.5 16 34.5C20.2488 34.5 24.0221 35.3104 26.6771 36.5549C29.4516 37.8555 30.5 39.3543 30.5 40.5Z" stroke="#152C5B" stroke-width="3"/>
<path d="M28.5 15.5221C28.5 19.5385 27.0051 25.8153 24.5405 31.0909C23.3125 33.7193 21.8856 36.0071 20.3612 37.6142C18.8213 39.2375 17.3468 40 16 40C14.6532 40 13.1787 39.2375 11.6388 37.6142C10.1144 36.0071 8.68746 33.7193 7.45951 31.0909C4.99485 25.8153 3.5 19.5385 3.5 15.5221C3.5 7.62851 9.23832 1.5 16 1.5C22.7617 1.5 28.5 7.62851 28.5 15.5221Z" fill="white" stroke="#152C5B" stroke-width="3"/>
<circle cx="16" cy="13" r="4.5" stroke="#FF498B" stroke-width="3"/>
</svg>
