<svg width="48" height="48" viewBox="0 0 48 48" fill="none" xmlns="http://www.w3.org/2000/svg">
<g clip-path="url(#clip0_42_51)">
<rect width="48" height="48" fill="white"/>
<path d="M1.5 28C1.5 26.6193 2.61929 25.5 4 25.5H20C21.3807 25.5 22.5 26.6193 22.5 28V36C22.5 37.3807 21.3807 38.5 20 38.5H4C2.61929 38.5 1.5 37.3807 1.5 36V28Z" stroke="#152C5B" stroke-width="3"/>
<path d="M19 39V42.5V46" stroke="#152C5B" stroke-width="3" stroke-linecap="round"/>
<path d="M12 16V20.5V25" stroke="#152C5B" stroke-width="3" stroke-linecap="round"/>
<path d="M17 15V17V19" stroke="#152C5B" stroke-width="3" stroke-linecap="round"/>
<path d="M5 39V42.5V46" stroke="#152C5B" stroke-width="3" stroke-linecap="round"/>
<path d="M5.43598 3.92162C5.47453 3.67877 5.68392 3.5 5.9298 3.5H18.0702C18.3161 3.5 18.5255 3.67878 18.564 3.92161L20.1513 13.9216C20.1995 14.2252 19.9649 14.5 19.6575 14.5H4.3425C4.03509 14.5 3.80049 14.2252 3.84868 13.9216L5.43598 3.92162Z" stroke="#FF498B" stroke-width="3"/>
</g>
<defs>
<clipPath id="clip0_42_51">
<rect width="48" height="48" fill="white"/>
</clipPath>
</defs>
</svg>
