<svg width="48" height="48" viewBox="0 0 48 48" fill="none" xmlns="http://www.w3.org/2000/svg">
<g clip-path="url(#clip0_46_27)">
<rect width="48" height="48" fill="white"/>
<path d="M41 21V13.6486V7.45503C41 6.73887 40.6171 6.07738 39.9961 5.72071L37.9961 4.57206C37.3793 4.21782 36.6207 4.21782 36.0039 4.57206L33 6.2973" stroke="#FF498B" stroke-width="3" stroke-linecap="round"/>
<path d="M1.5 25C1.5 23.6193 2.61929 22.5 4 22.5H44C45.3807 22.5 46.5 23.6193 46.5 25V27C46.5 28.3807 45.3807 29.5 44 29.5H4C2.61929 29.5 1.5 28.3807 1.5 27V25Z" stroke="#152C5B" stroke-width="3"/>
<path d="M5.5 30.0306H42.5V39.5306C42.5 41.4636 40.933 43.0306 39 43.0306H9C7.067 43.0306 5.5 41.4636 5.5 39.5306V30.0306Z" stroke="#152C5B" stroke-width="3"/>
<path d="M12 44V45V46" stroke="#152C5B" stroke-width="3" stroke-linecap="round"/>
<path d="M36 44V45V46" stroke="#152C5B" stroke-width="3" stroke-linecap="round"/>
</g>
<defs>
<clipPath id="clip0_46_27">
<rect width="48" height="48" fill="white"/>
</clipPath>
</defs>
</svg>
