<svg width="48" height="48" viewBox="0 0 48 48" fill="none" xmlns="http://www.w3.org/2000/svg">
<g clip-path="url(#clip0_46_62)">
<rect width="48" height="48" fill="white"/>
<path d="M24 27.5C27.267 27.5 30.2689 28.9096 32.5209 31.2657L31.9 30.8L31.8667 30.775L31.8321 30.7519L30.403 29.7992C30.403 29.7992 30.403 29.7992 30.403 29.7992C30.3983 29.7961 30.3836 29.7862 30.365 29.7737C30.3296 29.7499 30.2802 29.7168 30.2595 29.703C29.9925 29.5257 29.155 28.9903 28.0508 28.4945C26.9704 28.0094 25.4997 27.5 24 27.5ZM24 27.5C20.733 27.5 17.7311 28.9096 15.4791 31.2657L16.1 30.8L16.1333 30.775L16.1679 30.7519L17.597 29.7992L17.597 29.7992C17.6015 29.7962 17.6162 29.7864 17.6347 29.7739C17.6702 29.7501 17.72 29.7166 17.7405 29.703L17.7405 29.703C18.0075 29.5257 18.845 28.9903 19.9492 28.4945C21.0296 28.0094 22.5003 27.5 24 27.5Z" fill="white" stroke="#152C5B" stroke-width="3" stroke-linecap="round"/>
<path d="M34.3085 23.5235L34.2757 23.503L34.2419 23.4842L32.274 22.3899L32.274 22.3899C32.246 22.3743 32.2298 22.3652 32.2114 22.3548C32.194 22.3451 32.1747 22.3342 32.1416 22.3157L32.1416 22.3157C31.84 22.1473 30.7415 21.5535 29.2756 20.9984C27.8292 20.4507 25.9143 19.8976 24.0086 19.8976C22.103 19.8976 20.188 20.4507 18.7416 20.9984C17.2758 21.5535 16.1772 22.1473 15.8757 22.3157L15.8757 22.3157C15.8423 22.3343 15.823 22.3452 15.8057 22.3549C15.7874 22.3652 15.7714 22.3743 15.7432 22.3899C15.7432 22.3899 15.7432 22.3899 15.7432 22.3899L13.7753 23.4842L13.7415 23.503L13.7088 23.5235L11.3515 24.9982C11.2042 24.9646 11.1262 24.8825 11.0977 24.834C11.0867 24.8154 11.0823 24.8015 11.0806 24.7938C11.0791 24.7868 11.0794 24.7832 11.0796 24.7813L11.0796 24.7813C11.0798 24.7798 11.0809 24.7705 11.0904 24.7517C11.1002 24.7325 11.1236 24.6939 11.1766 24.6415C14.3636 21.4897 18.9222 19.5 24.0086 19.5C29.095 19.5 33.6536 21.4897 36.8406 24.6415C36.8936 24.6939 36.917 24.7325 36.9268 24.7517C36.9363 24.7705 36.9374 24.7798 36.9376 24.7813L36.9376 24.7813C36.9379 24.7832 36.9381 24.7868 36.9366 24.7938C36.9349 24.8015 36.9305 24.8154 36.9195 24.834C36.891 24.8825 36.813 24.9646 36.6657 24.9982L34.3085 23.5235Z" fill="white" stroke="#152C5B" stroke-width="3" stroke-linecap="round"/>
<path d="M37.03 15.661L36.9977 15.6418L36.9644 15.6243L34.513 14.3346C34.4874 14.3211 34.4669 14.3102 34.4431 14.2975C34.4262 14.2885 34.4076 14.2786 34.3844 14.2663C34.0516 14.0897 32.7161 13.4018 30.9207 12.755C29.1438 12.1149 26.8108 11.4759 24.5107 11.4759C22.2105 11.4759 19.8775 12.1149 18.1006 12.755C16.3052 13.4018 14.9697 14.0897 14.6369 14.2663C14.6137 14.2786 14.5951 14.2885 14.5782 14.2975C14.5544 14.3102 14.5339 14.3211 14.5083 14.3346L12.0569 15.6243L12.0236 15.6418L11.9913 15.661L8.95723 17.4568C8.60699 17.4276 8.39816 17.2432 8.3128 17.092C8.25966 16.9979 8.24994 16.9155 8.26005 16.8498C8.26885 16.7926 8.30422 16.6695 8.47998 16.5077C12.4776 12.8262 18.1648 10.5 24.5107 10.5C30.8565 10.5 36.5437 12.8262 40.5413 16.5077C40.7171 16.6695 40.7524 16.7926 40.7613 16.8498C40.7714 16.9155 40.7616 16.9979 40.7085 17.092C40.6231 17.2432 40.4143 17.4276 40.0641 17.4568L37.03 15.661Z" fill="white" stroke="#152C5B" stroke-width="3" stroke-linecap="round"/>
<circle cx="24" cy="38" r="4.5" stroke="#FF498B" stroke-width="3"/>
</g>
<defs>
<clipPath id="clip0_46_62">
<rect width="48" height="48" fill="white"/>
</clipPath>
</defs>
</svg>
